<svg width="86" height="90" viewBox="0 0 86 90" fill="none" xmlns="http://www.w3.org/2000/svg">
    <path d="M84.5547 27.1127C80.3359 23.2174 74.5 17.269 69.7469 13.0502L69.4656 12.8533C68.9977 12.4776 68.47 12.1829 67.9047 11.9815C56.4437 9.84397 3.10469 -0.126345 2.06406 0.000217717C1.77247 0.0410553 1.49376 0.146775 1.24844 0.309593L0.98125 0.52053C0.65225 0.854656 0.402369 1.25831 0.25 1.70178L0.179688 1.88459V2.88303V3.03772C6.18437 19.758 29.8938 74.5315 34.5625 87.3846C34.8438 88.2565 35.3781 89.9158 36.3766 90.0002H36.6016C37.1359 90.0002 39.4141 86.9908 39.4141 86.9908C39.4141 86.9908 80.1391 37.6033 84.2594 32.344C84.7927 31.6961 85.2636 30.9993 85.6656 30.2627C85.7682 29.6864 85.7199 29.0934 85.5252 28.5414C85.3305 27.9893 84.9961 27.4971 84.5547 27.1127ZM49.8625 32.8643L67.2438 18.4502L77.4391 27.844L49.8625 32.8643ZM43.1125 31.9221L13.1875 7.39709L61.6047 16.3268L43.1125 31.9221ZM45.8125 38.3487L76.4406 33.4127L41.425 75.6002L45.8125 38.3487ZM9.12344 9.84397L40.6094 36.5627L36.0531 75.6283L9.12344 9.84397Z" fill="#FF060A" fill-opacity="0.25"/>
</svg>
