<svg width="30" height="30" viewBox="0 0 30 30" fill="none" xmlns="http://www.w3.org/2000/svg">
    <path d="M15.1561 27.5708C8.32085 27.5708 2.74121 21.9856 2.74121 15.1561C2.74121 8.32085 8.32649 2.74121 15.1561 2.74121C21.9913 2.74121 27.5708 8.32649 27.5708 15.1561C27.5708 21.9913 21.9913 27.5708 15.1561 27.5708Z" fill="url(#paint0_linear_87_2520)"/>
    <path d="M15 30C6.75 30 0 23.25 0 15C0 6.75 6.75 0 15 0C23.25 0 30 6.75 30 15C30 23.25 23.25 30 15 30ZM15 3.33528C8.58528 3.33528 3.33528 8.58528 3.33528 15C3.33528 21.4147 8.58528 26.6647 15 26.6647C21.4147 26.6647 26.6647 21.4147 26.6647 15C26.6647 8.58528 21.4147 3.33528 15 3.33528Z" fill="black"/>
    <path d="M14.6524 19.0625H21.1524V22.3126H17.3172V25.0625H13.9819V22.3978H9.98199C9.98199 21.3125 9.81723 20.233 10.0672 19.233C10.1524 18.733 10.732 18.2329 11.1523 17.733C12.4024 16.233 13.6524 14.733 14.9877 13.233C15.4876 12.6478 15.9876 12.1477 16.5729 11.483H10.3229V8.23296H13.9876V5.4834H17.2377V8.1474H21.2376C21.2376 9.23256 21.4024 10.3122 21.1524 11.3122C21.0672 11.8122 20.4876 12.3121 20.0671 12.8122C18.8172 14.3122 17.5672 15.8122 16.2319 17.3122C15.7318 17.8978 15.232 18.4772 14.6524 19.0625Z" fill="black"/>
    <defs>
        <linearGradient id="paint0_linear_87_2520" x1="6.63183" y1="23.6692" x2="23.7701" y2="6.53089" gradientUnits="userSpaceOnUse">
            <stop stop-color="#CF8724"/>
            <stop offset="1" stop-color="#FDCE58"/>
        </linearGradient>
    </defs>
</svg>
