<svg width="35" height="35" viewBox="0 0 35 35" fill="none" xmlns="http://www.w3.org/2000/svg">
    <path d="M34.8702 7.55396C34.7813 7.36939 33.5782 6.12525 31.1651 3.719C28.3009 0.868417 27.5284 0.136972 27.3233 0.0686123C27.1729 0.0207607 26.8585 0.000252883 26.6192 0.0139247C26.2774 0.0344325 26.127 0.0822841 25.8946 0.246347C25.3136 0.649667 25.0948 1.53834 25.4161 2.16041C25.4981 2.3108 26.4962 3.36353 27.6788 4.54615L29.8048 6.66529L15.4356 6.69947L1.05966 6.73365L0.779391 6.88404C0.205172 7.19166 -0.0340854 7.66334 0.0137662 8.38111C0.0479458 8.93482 0.29404 9.31763 0.786227 9.56373L1.12119 9.74146L15.4767 9.76197L29.8321 9.77564L27.6036 12.0178C25.4161 14.2122 25.3751 14.26 25.2999 14.6155C25.1495 15.3333 25.4503 15.9963 26.0655 16.304C26.4757 16.5022 27.0089 16.5295 27.3985 16.3723C27.7472 16.2288 34.672 9.3108 34.8634 8.91432C35.0411 8.55201 35.0411 7.9231 34.8702 7.55396Z" fill="#2D2F34"/>
    <path d="M34.8495 26.0518C34.6718 25.6826 34.2753 25.3955 33.8309 25.2998C33.5917 25.2451 29.1415 25.2246 19.3251 25.2246L5.16786 25.2246L7.39637 22.9893C9.58388 20.7881 9.62489 20.7402 9.70009 20.3848C9.90516 19.3936 9.22841 18.5254 8.24403 18.5254C8.03212 18.5254 7.74501 18.5732 7.60145 18.6279C7.25282 18.7715 0.328015 25.6895 0.136609 26.0859C-0.0411255 26.4482 -0.0411255 27.0771 0.129773 27.4463C0.21864 27.6309 1.42177 28.875 3.83485 31.2812C6.69911 34.1318 7.47157 34.8633 7.67665 34.9316C7.82704 34.9795 8.14149 35 8.38075 34.9863C8.72255 34.9658 8.87294 34.918 9.10536 34.7539C9.68641 34.3506 9.90516 33.4619 9.58388 32.8398C9.50184 32.6895 8.5038 31.6367 7.32118 30.4541L5.1952 28.335L19.5643 28.3008C33.4345 28.2666 33.9472 28.2598 34.1796 28.1367C34.7538 27.8291 34.9999 27.4258 34.9999 26.7832C34.9999 26.4824 34.9589 26.2637 34.8495 26.0518Z" fill="#2D2F34"/>
</svg>
