<svg width="30" height="24" viewBox="0 0 30 24" fill="none" xmlns="http://www.w3.org/2000/svg">
    <path d="M1.69919 0.855469C1.10739 1.07812 0.691376 1.40625 0.380829 1.89258C-0.0293274 2.53711 -3.05176e-05 1.76367 -3.05176e-05 12C-3.05176e-05 22.2422 -0.0293274 21.4688 0.380829 22.1074C0.703094 22.6055 1.16013 22.9629 1.72263 23.1504C1.99216 23.2441 3.04099 23.25 15 23.25C26.9355 23.25 28.0078 23.2441 28.2773 23.1504C29.0332 22.8984 29.6425 22.2891 29.9004 21.5273C29.9941 21.2637 30 20.4609 30 12C30 3.53906 29.9941 2.73633 29.9004 2.47266C29.6425 1.71094 29.0332 1.10156 28.2773 0.849609C28.0078 0.755859 26.9414 0.75 14.9765 0.755859C2.95895 0.755859 1.94528 0.767578 1.69919 0.855469ZM27.6562 2.06836C27.6562 2.10352 18.0117 10.916 15.9961 12.7207C15.498 13.166 15.1465 13.2832 14.6894 13.1484C14.4668 13.084 14.2734 12.9609 14.0039 12.7207C11.9883 10.916 2.34372 2.10352 2.34372 2.06836C2.34372 2.05078 8.03903 2.03906 15 2.03906C21.9609 2.03906 27.6562 2.05078 27.6562 2.06836ZM6.25778 7.45898C8.9238 9.89648 11.1093 11.9062 11.1211 11.9355C11.1269 11.959 10.5761 12.4805 9.89059 13.0898C8.25583 14.5371 5.64841 16.9395 3.28122 19.1719C2.23239 20.1562 1.35934 20.9648 1.33591 20.9648C1.30661 20.9648 1.28903 16.9277 1.28903 12C1.28903 5.92969 1.30661 3.03516 1.34763 3.03516C1.38278 3.03516 3.59177 5.02734 6.25778 7.45898ZM28.7109 12C28.7109 16.9277 28.6933 20.9648 28.664 20.9648C28.6406 20.9648 27.7675 20.1562 26.7187 19.1719C24.3515 16.9395 21.7441 14.5371 20.1093 13.0898C19.4238 12.4805 18.873 11.959 18.8789 11.9355C18.914 11.8418 28.5644 3.04102 28.6406 3.04102C28.6933 3.03516 28.7109 4.86328 28.7109 12ZM12.832 13.4531C13.7285 14.2617 14.25 14.5195 15 14.5195C15.75 14.5195 16.2715 14.2617 17.1738 13.4531C17.5781 13.084 17.8418 12.8906 17.8886 12.9141C18.205 13.1074 21.58 16.1777 25.1836 19.5527L27.7207 21.9316L21.3633 21.9492C17.8593 21.9551 12.1406 21.9551 8.64255 21.9492L2.27927 21.9316L4.46481 19.8809C7.9277 16.623 12.0468 12.8789 12.164 12.8789C12.1816 12.8789 12.4804 13.1367 12.832 13.4531Z" fill="#FAFAFA"/>
</svg>
