<svg width="30" height="28" viewBox="0 0 30 28" fill="none" xmlns="http://www.w3.org/2000/svg">
    <path d="M14.5898 6.10695C6.9668 9.14796 0.644531 11.6792 0.539062 11.7378C0.433594 11.7905 0.269531 11.9605 0.169922 12.1128C0.0351562 12.3296 0 12.4468 0 12.7222C0 12.9097 0.0351562 13.1499 0.0820312 13.2554C0.28125 13.7183 0.328125 13.7417 4.2832 15.2534L7.99219 16.6773L9.03516 20.6265C10.1777 24.9566 10.1426 24.8511 10.6641 25.1148C10.9805 25.2788 11.3672 25.2847 11.6895 25.1382C11.8184 25.0796 12.8262 24.3823 13.9336 23.5855L15.9434 22.1382L19.7344 24.7105C21.8203 26.1226 23.6016 27.3062 23.6895 27.3472C23.9297 27.4527 24.4277 27.4292 24.7031 27.3062C24.9727 27.1831 25.207 26.9077 25.3008 26.5972C25.3359 26.4859 26.4082 20.9077 27.6855 14.2046C30.1934 1.04445 30.1172 1.51906 29.8301 1.09718C29.584 0.745621 29.332 0.616714 28.8633 0.599136L28.4473 0.581558L14.5898 6.10695ZM23.2031 5.46828C23.0566 5.61476 20.2617 8.29836 16.9922 11.439C12.8906 15.3823 11.0039 17.2339 10.916 17.4038C10.834 17.5562 10.7754 17.6206 10.7578 17.5679C10.7402 17.521 10.5996 16.9937 10.4414 16.3843C10.1074 15.1304 9.99023 14.896 9.5625 14.6851C9.41016 14.6089 8.2207 14.1402 6.92578 13.6421C5.18555 12.98 4.58789 12.728 4.66992 12.6987C4.82227 12.6284 23.4023 5.22218 23.4375 5.21632C23.4551 5.21046 23.3496 5.32765 23.2031 5.46828ZM25.1016 14.7319C24.1172 19.8823 23.3027 24.1128 23.291 24.1245C23.2559 24.1655 13.9453 17.8433 13.9629 17.7905C13.9746 17.7437 26.8594 5.33351 26.877 5.35109C26.8828 5.35695 26.0801 9.5757 25.1016 14.7319ZM12.5508 19.8413C13.6641 20.5972 13.7578 20.6734 13.6641 20.7495C13.5059 20.896 12.0645 21.9155 11.9824 21.9448C11.9355 21.9683 11.8711 21.8218 11.7891 21.4878C11.7188 21.2183 11.5312 20.5034 11.373 19.8941C11.1035 18.8804 11.0918 18.7984 11.209 18.9038C11.2793 18.9683 11.8828 19.3902 12.5508 19.8413Z" fill="#FAFAFA"/>
</svg>
