<svg width="30" height="30" viewBox="0 0 30 30" fill="none" xmlns="http://www.w3.org/2000/svg">
    <path d="M15 30C23.2843 30 30 23.2843 30 15C30 6.71573 23.2843 0 15 0C6.71573 0 0 6.71573 0 15C0 23.2843 6.71573 30 15 30Z" fill="#008CE7"/>
    <path d="M17.8934 7.50391H11.0721L10.5078 10.6605L16.6596 10.6698C19.6887 10.6698 20.5878 11.7695 20.5587 13.5948C20.5456 14.5305 20.1378 16.113 19.9653 16.623C19.4993 17.9917 18.5393 19.5498 14.9412 19.5452L8.96184 19.5414L8.39746 22.7017H15.2009C17.6 22.7017 18.6218 22.4214 19.7009 21.9236C22.0953 20.8192 23.5212 18.4539 24.094 15.3667C24.9434 10.773 23.884 7.50391 17.8925 7.50391H17.8934Z" fill="white"/>
    <path d="M14.8192 14.8104C15.0414 13.8869 15.1117 13.5166 15.1117 13.5166H8.13109C6.34609 13.5166 6.09109 14.6791 5.92141 15.3822C5.69922 16.3019 5.62891 16.6769 5.62891 16.6769H12.6105C14.3945 16.6769 14.6495 15.5144 14.8192 14.8104Z" fill="white"/>
</svg>
