<svg width="28" height="28" viewBox="0 0 28 28" fill="none" xmlns="http://www.w3.org/2000/svg">
    <path d="M9.28809 0.968748C8.26856 1.21484 7.31348 1.99414 6.85059 2.96094C6.48145 3.72265 6.49317 3.37695 6.51075 11.3457L6.52833 18.5996L6.68653 19.0391C7.07911 20.1055 7.97559 20.9844 9.03028 21.3301L9.45802 21.4707H16.8408H24.2236L24.6045 21.3359C25.7061 20.9375 26.6025 20.0352 26.9541 18.9746L27.0947 18.541V11.1582V3.77539L26.96 3.39453C26.5674 2.31054 25.7178 1.44922 24.6631 1.0625L24.2236 0.904295L16.9287 0.892576C10.7822 0.886717 9.58106 0.898436 9.28809 0.968748ZM23.9541 2.8789C24.5166 3.10742 24.9795 3.59961 25.1377 4.13867C25.2608 4.55469 25.2608 17.8203 25.1377 18.2363C24.9736 18.8105 24.4346 19.3496 23.8604 19.5137C23.4443 19.6367 10.1787 19.6367 9.7627 19.5137C9.22364 19.3555 8.73145 18.8926 8.50294 18.3301C8.40919 18.0898 8.40333 17.5918 8.38575 11.4512C8.37403 7.33789 8.39161 4.68945 8.42677 4.46094C8.56153 3.57617 9.15919 2.95508 9.99708 2.80859C10.1553 2.78515 13.2959 2.76758 16.9873 2.77344C23.2217 2.77929 23.7139 2.78515 23.9541 2.8789Z" fill="#FAFAFA"/>
    <path d="M3.66309 6.59375C2.64356 6.83984 1.68848 7.61914 1.22559 8.58594C0.856454 9.34766 0.868172 9.00195 0.885751 16.9707L0.903329 24.2246L1.06153 24.6641C1.45411 25.7305 2.35059 26.6094 3.40528 26.9551L3.83302 27.0957H11.2158H18.5986L18.9795 26.9609C20.3799 26.457 21.376 25.1973 21.4815 23.8027L21.5166 23.375H20.5498H19.583L19.5537 23.6328C19.4893 24.1777 19.0615 24.7637 18.54 25.0156C18.3994 25.0859 18.1182 25.168 17.9131 25.1973C17.6846 25.2324 15.0361 25.25 10.9229 25.2383C4.78223 25.2207 4.28419 25.2148 4.04395 25.1211C3.51661 24.9043 3.09473 24.4824 2.87794 23.9551C2.78419 23.7148 2.77833 23.2168 2.76075 17.0762C2.74903 12.9629 2.76661 10.3145 2.80177 10.0859C2.83106 9.88086 2.91309 9.59961 2.98341 9.45898C3.23536 8.9375 3.8213 8.50977 4.36622 8.44531L4.62403 8.41602V7.46094V6.5L4.31934 6.50586C4.14942 6.50586 3.85645 6.54688 3.66309 6.59375Z" fill="#FAFAFA"/>
</svg>
