<svg width="30" height="22" viewBox="0 0 30 22" fill="none" xmlns="http://www.w3.org/2000/svg">
    <path d="M0.410156 0.376953C0.363281 0.394531 0.251953 0.476562 0.164062 0.558594L0 0.710938V1.87109V3.03125L0.169922 3.21875L0.339844 3.41211H15H29.6602L29.8301 3.21875L30 3.03125V1.87109V0.710938L29.8184 0.535156L29.6426 0.365234L15.0703 0.353516C7.05469 0.347656 0.457031 0.359375 0.410156 0.376953Z" fill="#FAFAFA"/>
    <path d="M6.13594 9.66731L6 9.83462V11V12.1654L6.13594 12.3327L6.27188 12.5H18H29.7281L29.8641 12.3327L30 12.1654V11V9.83462L29.8641 9.66731L29.7281 9.5H18H6.27188L6.13594 9.66731Z" fill="#FAFAFA"/>
    <path d="M12.225 18.5413C12.1828 18.5643 12.116 18.662 12.0738 18.7481C12.0035 18.8918 12 18.9664 12 20.012V21.1266L12.102 21.3104L12.2039 21.5H20.9965H29.7855L29.891 21.3334L30 21.161V20.0235V18.886L29.898 18.7022L29.7961 18.5126L21.0457 18.5011C16.2363 18.4954 12.2637 18.5126 12.225 18.5413Z" fill="#FAFAFA"/>
</svg>
