<svg width="20" height="20" viewBox="0 0 20 20" fill="none" xmlns="http://www.w3.org/2000/svg">
    <path d="M9.55078 0.523708C9.15234 0.707302 9.14844 0.715115 7.91406 3.66433C7.27344 5.18777 6.75391 6.37527 6.71875 6.39871C6.67969 6.42214 5.35938 6.54714 3.78516 6.67996C2.20703 6.81277 0.828126 6.94558 0.722658 6.97293C0.128908 7.14089 -0.179686 7.87136 0.0937514 8.46121C0.19922 8.68777 0.113283 8.60964 2.89844 11.0159C3.88281 11.8636 4.69531 12.5823 4.70703 12.6214C4.71875 12.6565 4.42969 13.9612 4.0625 15.5198C3.69141 17.1136 3.39844 18.4378 3.39844 18.5432C3.39844 18.7932 3.57422 19.1682 3.77344 19.3284C4.04688 19.555 4.49219 19.637 4.82813 19.5159C4.91406 19.4886 6.05469 18.8128 7.3711 18.0159C8.6836 17.219 9.8125 16.5393 9.87891 16.5042C9.99219 16.4495 10.0117 16.4495 10.125 16.5081C10.1953 16.5432 11.3242 17.2229 12.6328 18.0198C13.9453 18.8128 15.0859 19.4886 15.1719 19.5159C15.8516 19.7581 16.6016 19.2386 16.6016 18.5276C16.6016 18.4339 16.3008 17.0784 15.9336 15.5159C15.3438 13.0042 15.2734 12.6643 15.3203 12.5901C15.3477 12.5393 16.2422 11.7503 17.3047 10.8362C19.8828 8.61746 19.7969 8.69168 19.9063 8.46121C20.0352 8.18386 20.0352 7.79324 19.9063 7.51589C19.793 7.2698 19.5352 7.04714 19.2773 6.97293C19.168 6.94168 17.8086 6.81277 16.2109 6.67996C13.4727 6.44949 13.3359 6.43777 13.2578 6.35574C13.2109 6.30886 12.6758 5.07839 12.0664 3.61746C10.8516 0.719021 10.8477 0.707302 10.4492 0.523708C10.3086 0.457302 10.1836 0.429958 10 0.429958C9.81641 0.429958 9.69141 0.457302 9.55078 0.523708Z" fill="#FFA800"/>
</svg>
